<svg width="24" height="24" viewBox="0 0 24 24" fill="none" xmlns="http://www.w3.org/2000/svg">
<path opacity="0.5" d="M13.8676 2.92981H9.57062C5.51971 2.92981 3.49328 2.92981 2.23542 4.21696C0.97757 5.50411 0.976593 7.57645 0.976593 11.7192C0.976593 15.8619 0.976593 17.9342 2.23542 19.2214C3.49425 20.5085 5.51971 20.5085 9.57062 20.5085H13.8676C17.9186 20.5085 19.945 20.5085 21.2028 19.2214C22.4607 17.9342 22.4617 15.8619 22.4617 11.7192C22.4617 7.57645 22.4617 5.50411 21.2028 4.21696C19.944 2.92981 17.9186 2.92981 13.8676 2.92981Z" fill="#FF9D00"/>
<path d="M18.6803 7.84497C18.8445 7.70821 18.9477 7.51182 18.9671 7.299C18.9865 7.08619 18.9206 6.87437 18.7838 6.71016C18.647 6.54595 18.4507 6.44279 18.2378 6.42338C18.025 6.40396 17.8132 6.46989 17.649 6.60664L15.3296 8.5403C14.3276 9.37529 13.6323 9.95343 13.0444 10.3304C12.476 10.6966 12.0902 10.8187 11.7191 10.8187C11.348 10.8187 10.9632 10.6966 10.3939 10.3304C9.80695 9.95343 9.11064 9.37529 8.10865 8.53932L5.78924 6.60664C5.62503 6.46989 5.41321 6.40396 5.2004 6.42338C4.98758 6.44279 4.79119 6.54595 4.65443 6.71016C4.51768 6.87437 4.45175 7.08619 4.47117 7.299C4.49058 7.51182 4.59374 7.70821 4.75795 7.84497L7.11741 9.81183C8.06959 10.6048 8.8411 11.2474 9.52276 11.6869C10.2318 12.142 10.9232 12.4311 11.7201 12.4311C12.515 12.4311 13.2065 12.142 13.9165 11.6859C14.5971 11.2484 15.3687 10.6048 16.3208 9.81085L18.6803 7.84497Z" fill="#FF9D00"/>
</svg>
