<svg width="19" height="24" viewBox="0 0 19 24" fill="none" xmlns="http://www.w3.org/2000/svg">
<path d="M14.5 0H4.5C3.30734 0.00264157 2.16428 0.477596 1.32094 1.32094C0.477596 2.16428 0.00264157 3.30734 0 4.5V23C0 23.2652 0.105357 23.5196 0.292893 23.7071C0.48043 23.8946 0.734784 24 1 24C1.26522 24 1.51957 23.8946 1.70711 23.7071C1.89464 23.5196 2 23.2652 2 23V21.75C2 21.6837 2.02634 21.6201 2.07322 21.5732C2.12011 21.5263 2.1837 21.5 2.25 21.5H16.75C16.8163 21.5 16.8799 21.5263 16.9268 21.5732C16.9737 21.6201 17 21.6837 17 21.75V23C17 23.2652 17.1054 23.5196 17.2929 23.7071C17.4804 23.8946 17.7348 24 18 24C18.2652 24 18.5196 23.8946 18.7071 23.7071C18.8946 23.5196 19 23.2652 19 23V4.5C18.9974 3.30734 18.5224 2.16428 17.6791 1.32094C16.8357 0.477596 15.6927 0.00264157 14.5 0ZM5.5 10.55C5.45856 10.4934 5.43622 10.4251 5.43622 10.355C5.43622 10.2849 5.45856 10.2166 5.5 10.16C5.54874 10.1048 5.61363 10.0665 5.68544 10.0503C5.75725 10.0341 5.83233 10.041 5.9 10.07L13.77 13.45C13.8342 13.4757 13.8893 13.5197 13.9284 13.5767C13.9676 13.6336 13.989 13.7009 13.99 13.77C13.9884 13.8402 13.9669 13.9085 13.928 13.967C13.889 14.0254 13.8342 14.0715 13.77 14.1L5.9 17.47C5.83262 17.4961 5.7592 17.5024 5.68836 17.4882C5.61751 17.4741 5.55217 17.44 5.5 17.39C5.46131 17.3323 5.44065 17.2644 5.44065 17.195C5.44065 17.1256 5.46131 17.0577 5.5 17L7.1 13.78L5.5 10.55ZM4.3 2.55H14.8C14.8663 2.55 14.9299 2.57634 14.9768 2.62322C15.0237 2.67011 15.05 2.7337 15.05 2.8V6.3C15.05 6.3663 15.0237 6.42989 14.9768 6.47678C14.9299 6.52366 14.8663 6.55 14.8 6.55H4.25C4.1837 6.55 4.12011 6.52366 4.07322 6.47678C4.02634 6.42989 4 6.3663 4 6.3V2.75C4 2.6837 4.02634 2.62011 4.07322 2.57322C4.12011 2.52634 4.1837 2.5 4.25 2.5L4.3 2.55Z" fill="#FF2F00"/>
</svg>
